<?xml version="1.0" standalone="no"?>
<!DOCTYPE svg PUBLIC "-//W3C//DTD SVG 20010904//EN"
 "http://www.w3.org/TR/2001/REC-SVG-20010904/DTD/svg10.dtd">
<svg version="1.0" xmlns="http://www.w3.org/2000/svg"
 width="500.000000pt" height="500.000000pt" viewBox="0 0 500.000000 500.000000"
 preserveAspectRatio="xMidYMid meet">

<g transform="translate(0.000000,500.000000) scale(0.100000,-0.100000)"
fill="#ef562f" stroke="none">
<path d="M1954 4401 c-29 -13 -57 -54 -82 -123 -19 -52 -92 -299 -106 -360 -3
-14 -9 -33 -12 -42 -10 -25 46 -43 196 -60 329 -38 588 -37 895 5 82 11 152
22 154 25 3 2 -4 39 -14 82 -10 42 -19 82 -20 87 -1 6 -4 17 -7 25 -4 8 -23
70 -42 138 -41 144 -67 194 -111 218 -50 27 -140 15 -263 -34 -149 -60 -147
-60 -296 -7 -133 47 -248 65 -292 46z"/>
<path d="M1615 3676 c-27 -12 -114 -47 -191 -76 -163 -62 -182 -73 -165 -94
20 -24 111 -62 216 -91 55 -15 123 -33 150 -41 69 -18 269 -51 390 -63 390
-38 329 -38 715 -5 177 15 521 89 655 140 63 24 115 62 109 79 -5 13 -122 63
-274 115 -36 13 -84 31 -108 41 -43 19 -44 18 -128 -6 -346 -100 -888 -98
-1224 5 -80 24 -83 24 -145 -4z"/>
<path d="M1626 3234 c-17 -45 6 -179 40 -232 24 -37 73 -80 104 -90 l26 -10
-23 142 c-13 77 -29 150 -34 162 -10 20 -60 44 -91 44 -9 0 -19 -7 -22 -16z"/>
<path d="M3325 3231 c-386 -62 -669 -410 -641 -787 19 -257 184 -503 414 -618
185 -92 381 -104 584 -34 49 17 93 27 97 22 12 -14 117 -158 124 -170 4 -7 2
-25 -4 -41 -14 -43 -3 -65 104 -205 52 -68 123 -165 158 -217 85 -126 125
-167 172 -176 83 -16 169 49 183 136 6 38 -18 79 -182 304 -48 66 -109 152
-137 190 -61 86 -72 95 -117 95 -35 0 -39 4 -98 91 -34 50 -62 96 -62 101 0 5
23 35 51 66 54 61 103 139 133 212 10 25 22 54 27 65 43 105 37 367 -11 490
-55 141 -149 264 -266 346 -65 44 -173 96 -241 113 -74 19 -219 28 -288 17z
m267 -195 c71 -19 192 -92 244 -148 115 -124 155 -225 155 -397 0 -166 -57
-298 -182 -421 -137 -136 -363 -186 -556 -125 -84 26 -202 101 -248 158 -14
17 -32 39 -40 48 -102 127 -139 341 -86 507 55 174 212 328 383 376 29 8 67
17 83 20 51 7 187 -2 247 -18z"/>
<path d="M3339 2895 c-109 -40 -189 -142 -189 -241 l0 -34 68 0 68 0 21 49
c14 35 30 54 54 66 87 46 189 -4 189 -91 0 -38 -23 -73 -85 -134 -69 -66 -107
-137 -103 -188 2 -22 8 -37 16 -36 6 1 36 2 66 3 53 1 55 2 66 36 7 21 38 61
76 98 114 109 142 213 90 330 -54 123 -210 189 -337 142z"/>
<path d="M3389 2185 c-45 -25 -48 -82 -5 -117 30 -25 73 -22 101 7 39 38 30
86 -22 113 -28 15 -42 15 -74 -3z"/>
<path d="M1663 2751 c-110 -52 -211 -127 -341 -253 -89 -87 -142 -150 -142
-171 0 -11 31 -32 88 -60 83 -42 352 -198 400 -232 12 -9 22 -20 22 -25 0 -5
-45 -63 -101 -130 -56 -67 -100 -123 -98 -125 2 -2 160 -161 350 -353 l347
-349 53 116 c29 64 52 120 52 126 0 5 -22 55 -48 110 -75 158 -115 246 -135
295 -10 25 -31 79 -48 120 -16 41 -41 104 -55 140 -38 97 -121 366 -166 536
-52 193 -82 278 -101 281 -8 2 -43 -10 -77 -26z"/>
<path d="M2015 2470 c2 -8 7 -28 10 -45 4 -16 10 -39 15 -50 5 -11 29 -83 54
-161 25 -77 54 -160 64 -184 l18 -44 26 30 c78 89 116 134 146 170 l33 39 29
-35 c16 -19 60 -74 97 -122 37 -48 71 -87 74 -88 4 0 17 25 29 55 l23 55 -26
58 c-14 31 -31 83 -38 115 -7 32 -15 56 -18 54 -70 -39 -147 -56 -214 -46 -65
10 -184 80 -263 154 -35 33 -62 53 -59 45z"/>
<path d="M1320 2073 c-165 -63 -420 -198 -420 -222 0 -3 -11 -19 -24 -34 -14
-16 -37 -63 -51 -105 -15 -42 -30 -84 -33 -92 -3 -8 -7 -24 -9 -35 -2 -11 -19
-94 -38 -185 -56 -267 -124 -622 -127 -660 l-3 -35 727 -3 726 -2 12 37 c6 21
15 47 19 58 5 11 16 46 26 79 l17 59 -59 59 c-32 33 -125 126 -207 206 -188
186 -536 552 -536 565 0 5 39 56 86 114 48 58 83 108 78 112 -138 95 -145 98
-184 84z"/>
<path d="M2690 1808 c-52 -134 -99 -235 -298 -634 -154 -311 -213 -457 -193
-477 8 -8 32 11 88 69 42 43 255 258 472 477 398 400 412 416 352 417 -38 0
-207 108 -286 182 -45 43 -85 78 -87 78 -3 0 -24 -51 -48 -112z"/>
<path d="M3645 1628 c-49 -17 -88 -21 -209 -23 l-150 -3 -423 -422 c-233 -233
-433 -436 -444 -451 l-20 -29 870 0 c690 0 871 3 872 13 4 47 -35 272 -57 332
-4 11 -66 101 -138 200 -146 200 -176 252 -176 303 0 37 -34 102 -53 101 -7 0
-39 -9 -72 -21z"/>
</g>
</svg>
